<svg xmlns="http://www.w3.org/2000/svg" viewBox="0 0 240 240" role="img" aria-label="Filadélfia">
  <!-- F branco (superior) -->
  <path d="M 55 58 L 172 58 Q 185 58 185 71 L 185 88 Q 185 101 172 101 L 118 101 L 118 128 Q 118 140 105 140 L 92 140 Q 79 140 79 128 L 79 71 Q 79 58 92 58 Z"
        fill="#ffffff"/>
  <!-- F azul ciano (inferior, deslocado para direita e baixo) -->
  <path d="M 82 115 L 199 115 Q 212 115 212 128 L 212 145 Q 212 158 199 158 L 145 158 L 145 185 Q 145 197 132 197 L 119 197 Q 106 197 106 185 L 106 128 Q 106 115 119 115 Z"
        fill="#1CA7EC"/>
</svg>
